<?xml version="1.0" encoding="utf-8"?>
<!-- Generated by IcoMoon.io -->
<!DOCTYPE svg PUBLIC "-//W3C//DTD SVG 1.1//EN" "http://www.w3.org/Graphics/SVG/1.1/DTD/svg11.dtd">
<svg version="1.1" xmlns="http://www.w3.org/2000/svg" xmlns:xlink="http://www.w3.org/1999/xlink" width="32" height="32" viewBox="0 0 32 32">
<path d="M20.524 0.96h-9.331c-1.324 0-2.408 1.086-2.408 2.414v9.294c0 1.328 1.084 2.474 2.408 2.474h1.264c-0.451-1.509-0.482-2.776 0-4.164 0.301-0.754 1.023-1.267 1.836-1.267 0.211 0 0.421 0.030 0.632 0.091 1.023 0.362 1.535 1.448 1.174 2.444-0.331 0.966-0.12 1.992 0.662 2.867 0.421-0.302 0.903-0.573 1.385-0.573h3.16c0.211 0 0.421 0.060 0.632 0.091 0.602-0.422 1.023-1.147 1.023-1.961v-9.294c-0.030-1.328-1.114-2.414-2.438-2.414v0z"></path>
<path d="M30.668 22.264l-8.518-6.065c-0.241-0.181-0.692-0.302-0.993-0.302h-2.89c-0.301 0-0.692 0.211-0.843 0.483l-0.542 0.754c-1.294-0.966-2.95-2.806-2.107-5.281 0.090-0.272-0.060-0.604-0.331-0.724-0.271-0.091-0.602 0.060-0.692 0.332-0.963 2.867 0.783 5.22 2.498 6.578l-0.301 0.453c-0.181 0.241-0.211 0.694-0.12 0.966l0.903 2.897c0.090 0.272 0.361 0.664 0.632 0.845l8.488 6.065c0.421 0.272 0.873 0.332 1.174-0.060l3.883-5.643c0.271-0.422 0.181-1.026-0.241-1.298v0zM19.772 19.669c-0.482 0.664-1.385 0.845-2.047 0.392-0.482-0.332-0.692-0.905-0.602-1.479 0.181 0.121 0.421 0.211 0.572 0.302 0.060 0.030 0.151 0.060 0.211 0.060 0.211 0 0.421-0.121 0.512-0.302 0.12-0.272 0.030-0.604-0.241-0.754-0.030-0.030-0.181-0.091-0.451-0.241 0.482-0.392 1.174-0.392 1.686-0.030 0.632 0.483 0.783 1.418 0.361 2.052v0z"></path>
<path d="M12.699 31.135h-9.331c-1.324 0-2.408-1.086-2.408-2.414v-9.294c0-1.328 1.084-2.414 2.408-2.414h9.331c1.324 0 2.408 1.086 2.408 2.414v9.294c0 1.328-1.084 2.414-2.408 2.414v0z"></path>
<path d="M31.059 20.604v-1.177c0-1.328-1.204-2.474-2.528-2.474h-2.619l5.147 3.651z"></path>
<path d="M28.23 30.049c-0.421 0.604-1.084 0.935-1.806 0.935-0.512 0-0.963-0.181-1.445-0.483l-8.067-5.824v4.043c0 1.328 0.963 2.414 2.288 2.414h9.331c1.324 0 2.528-1.086 2.528-2.414v-2.686l-2.829 4.013z"></path>
</svg>
