<?xml version="1.0" encoding="utf-8"?>
<!-- Generated by IcoMoon.io -->
<!DOCTYPE svg PUBLIC "-//W3C//DTD SVG 1.1//EN" "http://www.w3.org/Graphics/SVG/1.1/DTD/svg11.dtd">
<svg version="1.1" xmlns="http://www.w3.org/2000/svg" xmlns:xlink="http://www.w3.org/1999/xlink" width="32" height="32" viewBox="0 0 32 32">
<path d="M28.634 0.96h-25.267c-1.324 0-2.406 1.083-2.406 2.406v25.267c0 1.324 1.083 2.406 2.406 2.406h25.267c1.324 0 2.406-1.083 2.406-2.406v-25.267c0-1.324-1.083-2.406-2.406-2.406v0zM19.567 21.943c-1.915 2.080-4.259 3.335-5.151 3.335-0.297 0-0.594-0.066-0.825-0.33s-0.363-0.627-0.363-1.156c0-0.429 0.066-1.321 0.231-1.948l1.387-5.877c0.066-0.33 0.099-0.528 0.099-0.66-0.231 0.099-1.288 0.825-1.783 1.255l-0.231 0.099-0.561-1.42 0.099-0.099c1.915-1.783 4.226-3.203 5.283-3.203 0.297 0 0.561 0.165 0.693 0.396 0.165 0.264 0.198 0.561 0.198 0.958 0 0.429-0.066 1.288-0.198 1.849l-1.519 6.075c-0.066 0.297-0.099 0.528-0.099 0.627 0 0.066 0 0.132 0.033 0.165 0.165-0.033 1.222-0.726 1.915-1.387l0.165-0.165 0.561 1.255 0.066 0.132v0.099zM17.421 10.717v0c-1.024 0-1.651-0.726-1.651-1.816-0.066-0.958 0.726-2.179 2.146-2.179 0.528 0 0.958 0.198 1.255 0.528s0.429 0.759 0.429 1.222c0 1.156-0.892 2.245-2.179 2.245v0z"></path>
</svg>
