<?xml version="1.0" encoding="utf-8"?>
<!-- Generated by IcoMoon.io -->
<!DOCTYPE svg PUBLIC "-//W3C//DTD SVG 1.1//EN" "http://www.w3.org/Graphics/SVG/1.1/DTD/svg11.dtd">
<svg version="1.1" xmlns="http://www.w3.org/2000/svg" xmlns:xlink="http://www.w3.org/1999/xlink" width="32" height="32" viewBox="0 0 32 32">
<path d="M30.405 12.297l-2.293-2.335c-0.238-0.239-0.536-0.329-0.864-0.329h-5.45v-2.694h3.008c0.774 0 1.459-0.599 1.459-1.377v-3.233c0-0.748-0.685-1.377-1.459-1.377h-17.929c-0.774 0-1.459 0.629-1.459 1.377v3.233c0 0.778 0.685 1.377 1.459 1.377h3.008v2.694h-5.45c-0.328 0-0.625 0.12-0.864 0.329l-2.293 2.365c-0.208 0.21-0.328 0.509-0.328 0.838v1.796c0.208 0.629 0.745 1.108 1.43 1.257h0.060c0.119 0.030 0.268 0.030 0.387 0.030 1.102 0 1.966-0.868 1.966-1.916 0-0.329 0.268-0.599 0.596-0.599h0.060c0.328 0 0.596 0.269 0.596 0.599 0 1.048 0.893 1.916 1.966 1.916 1.102 0 1.966-0.868 1.966-1.916 0-0.329 0.268-0.599 0.596-0.599h0.060c0.328 0 0.596 0.269 0.596 0.599 0 1.048 0.893 1.916 1.966 1.916s1.966-0.868 1.966-1.916c0-0.329 0.268-0.599 0.596-0.599h0.060c0.328 0 0.596 0.269 0.596 0.599 0 1.048 0.893 1.916 1.966 1.916 1.102 0 1.966-0.868 1.966-1.916 0-0.329 0.268-0.599 0.596-0.599h0.060c0.328 0 0.596 0.269 0.596 0.599 0 1.048 0.893 1.916 1.966 1.916s1.966-0.868 1.966-1.916c0-0.329 0.268-0.599 0.596-0.599h0.060c0.328 0 0.596 0.269 0.596 0.599 0 1.048 0.893 1.916 1.966 1.916 0.149 0 0.298-0.030 0.447-0.060v0 0c0.745-0.15 1.31-0.719 1.489-1.437v-1.647c0.060-0.299-0.060-0.569-0.268-0.808v0zM11.374 9.633v-2.694h8.935v2.694h-8.935z"></path>
<path d="M26.206 16.129c-0.566 0.808-1.519 1.347-2.591 1.347s-2.025-0.539-2.591-1.347c-0.566 0.808-1.519 1.347-2.591 1.347s-2.025-0.539-2.591-1.347c-0.566 0.808-1.519 1.347-2.591 1.347s-2.025-0.539-2.591-1.347c-0.566 0.808-1.519 1.347-2.591 1.347s-2.025-0.539-2.591-1.347c-0.566 0.808-1.519 1.347-2.591 1.347-0.119 0-0.268 0-0.387-0.030v10.688c0 1.527 1.251 2.784 2.77 2.784h21.294c1.519 0 2.74-1.227 2.74-2.784v-10.688c-0.149 0.030-0.298 0.030-0.447 0.030-1.132 0-2.085-0.539-2.651-1.347v0z"></path>
</svg>
