<?xml version="1.0" encoding="utf-8"?>
<!-- Generated by IcoMoon.io -->
<!DOCTYPE svg PUBLIC "-//W3C//DTD SVG 1.1//EN" "http://www.w3.org/Graphics/SVG/1.1/DTD/svg11.dtd">
<svg version="1.1" xmlns="http://www.w3.org/2000/svg" xmlns:xlink="http://www.w3.org/1999/xlink" width="32" height="32" viewBox="0 0 32 32">
<path d="M30.057 3.066h-10.652c-0.542 0-0.993-0.451-0.993-0.993v-0.12c0-0.542 0.451-0.993 0.993-0.993h10.682c0.542 0 0.993 0.451 0.993 0.993v0.15c-0.030 0.512-0.481 0.963-1.023 0.963v0z"></path>
<path d="M15.915 3.066h-0.903c-0.572 0-1.053-0.481-1.053-1.053v0c0-0.572 0.481-1.053 1.053-1.053h0.903c0.572 0 1.053 0.481 1.053 1.053v0c0 0.572-0.481 1.053-1.053 1.053v0z"></path>
<path d="M15.915 8.332h-0.903c-0.572 0-1.053-0.481-1.053-1.053v0c0-0.572 0.481-1.053 1.053-1.053h0.903c0.572 0 1.053 0.481 1.053 1.053v0c0 0.572-0.481 1.053-1.053 1.053v0z"></path>
<path d="M25.242 11.576c0-0.632-0.361-0.632-0.662-0.632l-18.024 0.090-1.143-2.528c-0.15-0.331-0.451-0.542-0.812-0.542h-2.738c-0.512 0-0.903 0.421-0.903 0.933s0.421 0.933 0.903 0.933l2.166-0.030 4.995 11.043-0.512 0.030c-1.625 0.060-2.949 1.354-2.949 3.039s1.384 3.009 3.039 3.009h0.211c-0.361 0.602-0.632 1.083-0.602 1.685 0 1.384 1.083 2.497 2.437 2.497s2.437-1.143 2.407-2.528c0-0.632-0.241-1.053-0.632-1.655h7.101c-0.361 0.602-0.602 1.053-0.602 1.715 0 1.384 1.083 2.497 2.437 2.497s2.437-1.143 2.407-2.528c0-0.632-0.241-1.053-0.632-1.655h0.241c0.512 0 0.903-0.361 0.903-0.873s-0.421-0.963-0.903-0.963h-14.774c-0.692 0-1.264-0.481-1.264-1.143s0.542-1.204 1.234-1.204l16.128-1.294c0.481-0.030 0.843-0.421 0.843-0.903l-0.181-6.891h4.604c0.542 0 0.993-0.451 0.993-0.993v-0.15c0-0.542-0.451-0.963-0.993-0.963h-4.724z"></path>
<path d="M30.057 8.332h-10.652c-0.542 0-0.993-0.451-0.993-0.993v-0.15c0-0.542 0.451-0.993 0.993-0.993h10.682c0.542 0 0.993 0.451 0.993 0.993v0.15c-0.030 0.542-0.481 0.993-1.023 0.993v0z"></path>
</svg>
