<?xml version="1.0" encoding="utf-8"?>
<!-- Generated by IcoMoon.io -->
<!DOCTYPE svg PUBLIC "-//W3C//DTD SVG 1.1//EN" "http://www.w3.org/Graphics/SVG/1.1/DTD/svg11.dtd">
<svg version="1.1" xmlns="http://www.w3.org/2000/svg" xmlns:xlink="http://www.w3.org/1999/xlink" width="32" height="32" viewBox="0 0 32 32">
<path d="M28.501 14.126l-3.011 7.496c-0.152 0.338-0.487 0.584-0.852 0.584h-12.592c-0.365 0-0.73-0.246-0.852-0.584-0.639-1.597-2.433-6.236-3.924-9.892-0.548-0.952-0.395-0.768-4.897-1.536-0.791-0.123-1.551 0.399-1.673 1.229-0.122 0.799 0.395 1.567 1.186 1.69 1.125 0.184 2.007 0.338 2.525 0.43 0.304 0.061 0.578 0.246 0.7 0.553 0.821 1.905 3.65 8.417 4.471 10.383 0.152 0.338 0.487 0.553 0.852 0.553h15.908c0.365 0 0.7-0.215 0.852-0.584l3.832-9.308c0.213-0.492-0.030-1.044-0.517-1.229l-0.791-0.307c-0.517-0.184-1.034 0.061-1.217 0.522v0z"></path>
<path d="M16.943 28.718c0 1.459-1.171 2.642-2.616 2.642s-2.616-1.183-2.616-2.642c0-1.459 1.171-2.642 2.616-2.642s2.616 1.183 2.616 2.642z"></path>
<path d="M25.551 28.718c0 1.459-1.171 2.642-2.616 2.642s-2.616-1.183-2.616-2.642c0-1.459 1.171-2.642 2.616-2.642s2.616 1.183 2.616 2.642z"></path>
<path d="M13.141 21.161h10.128c0.639 0 0.821-0.369 1.125-1.075l1.916-4.454c-1.125 0.522-2.403 0.829-3.741 0.829-0.426 0-0.852-0.031-1.277-0.092l-1.916 1.843c-0.183 0.184-0.578 0.522-1.095 0.522-0.487 0-0.973-0.338-0.973-1.075v-2.888c-2.129-1.597-3.376-4.055-3.376-6.666 0-1.26 0.304-2.458 0.821-3.533h-1.217c-0.639 0-1.125 0.522-1.125 1.075v5.284h-2.433c-0.639 0-1.46 0.43-0.821 1.782l2.889 7.373c0.243 0.584 0.456 1.075 1.095 1.075v0z"></path>
<path d="M22.722 0.64c-4.076 0-7.361 3.195-7.361 7.158 0 2.458 1.399 4.639 3.224 5.929v3.195c0 0.614 0.578 0 0.578 0l2.068-2.058c0.487 0.092 0.943 0.123 1.49 0.123 4.076 0 7.391-3.195 7.391-7.158s-3.315-7.188-7.391-7.188v0zM23.452 11.546c0 0.43-0.304 0.799-0.76 0.799-0.456-0.031-0.76-0.369-0.76-0.799v-0.061c0-0.43 0.304-0.799 0.76-0.799s0.76 0.338 0.76 0.799v0.061zM23.452 9.027c-0.122 0.276-0.152 0.584-0.152 0.86 0 0.123-0.091 0.276-0.213 0.276h-0.852c-0.122 0-0.213-0.154-0.213-0.276 0-0.399 0.061-0.737 0.213-1.137 0.335-0.891 1.43-1.628 1.764-2.15 0.365-0.584 0.274-1.29-0.091-1.72-0.426-0.522-1.916-0.676-2.433 0.307-0.152 0.307-0.213 0.737-0.243 1.106 0 0.123-0.091 0.246-0.213 0.246h-0.852c-0.122 0-0.213-0.123-0.213-0.246 0.030-0.768 0.213-1.505 0.76-2.089 1.399-1.505 4.836-1.014 4.836 1.69 0 1.536-1.612 2.089-2.099 3.133v0z"></path>
</svg>
