<?xml version="1.0" encoding="utf-8"?>
<!-- Generated by IcoMoon.io -->
<!DOCTYPE svg PUBLIC "-//W3C//DTD SVG 1.1//EN" "http://www.w3.org/Graphics/SVG/1.1/DTD/svg11.dtd">
<svg version="1.1" xmlns="http://www.w3.org/2000/svg" xmlns:xlink="http://www.w3.org/1999/xlink" width="32" height="32" viewBox="0 0 32 32">
<path d="M16 0.96c-8.302 0-15.040 6.738-15.040 15.040s6.738 15.040 15.040 15.040c8.302 0 15.040-6.738 15.040-15.040s-6.738-15.040-15.040-15.040v0zM15.97 24.107c-0.826 0-1.549-0.697-1.549-1.549s0.697-1.549 1.549-1.549c0.826 0 1.549 0.697 1.549 1.549s-0.697 1.549-1.549 1.549v0zM18.828 15.88c-1.173 1.143-1.444 1.504-1.444 2.828 0 0.331-0.271 0.602-0.572 0.602h-1.805c-0.301 0-0.572-0.271-0.572-0.602 0-2.256 0.632-3.128 2.226-4.723 0.361-0.361 0.722-0.722 0.842-0.963 0.572-0.963 0.331-2.557-1.414-2.557-1.504 0-1.805 1.053-1.865 2.406-0.030 0.572-0.572 0.481-2.346 0.481-0.15 0-0.331 0-0.451-0.12s-0.18-0.211-0.18-0.361c0.030-3.429 2.106-5.294 4.903-5.294 3.219 0 4.692 2.346 4.692 4.512 0 1.805-1.083 2.858-2.015 3.79v0z"></path>
</svg>
