<?xml version="1.0" encoding="utf-8"?>
<!-- Generated by IcoMoon.io -->
<!DOCTYPE svg PUBLIC "-//W3C//DTD SVG 1.1//EN" "http://www.w3.org/Graphics/SVG/1.1/DTD/svg11.dtd">
<svg version="1.1" xmlns="http://www.w3.org/2000/svg" xmlns:xlink="http://www.w3.org/1999/xlink" width="32" height="32" viewBox="0 0 32 32">
<path d="M7.419 0.64c3.749 0 6.792 2.95 6.792 6.546 0 0.645-0.092 1.26-0.246 1.813h6.177c0.184 0 0.492 0.061 0.492 0.246v13.522c0 0.184 0.154 0.338 0.338 0.338s0.338-0.154 0.338-0.338v-12.232c0-0.184 0.031-0.43 0.215-0.43h0.645c0.184 0 0.215 0.184 0.215 0.43v0.799c0 0.184 0.277 0.277 0.492 0.277h4.979c0.184 0 0.461 0.184 0.553 0.338l2.766 4.886c0.092 0.184 0.184 0.492 0.184 0.676v9.804c0 0.184-0.154 0.246-0.338 0.246h-1.721c0-1.106-0.461-2.305-1.26-3.135s-1.905-1.322-3.012-1.322h-0.031c-1.168 0-2.274 0.522-3.073 1.383-0.799 0.83-1.291 2.028-1.291 3.196v-0.092h-7.622c-0.031-1.106-0.492-2.305-1.26-3.104-0.799-0.83-1.905-1.352-3.012-1.352h-0.031c-2.305 0-4.21 2.213-4.241 4.456h-1.905c-0.184 0-0.338-0.061-0.338-0.246v-15.92c-0.983-1.137-1.598-2.612-1.598-4.21-0.031-3.626 3.012-6.577 6.792-6.577v0zM2.84 8.6c0 0.154 0.123 0.246 0.246 0.246h4.149c0.154 0 0.246 0.123 0.246 0.246v1.444c0 0.246 0.277 0.338 0.461 0.184l3.596-3.504c0.092-0.092 0.092-0.246 0-0.369l-3.534-3.749c-0.154-0.184-0.492-0.061-0.492 0.184v1.66c0 0.154-0.123 0.246-0.246 0.246h-4.18c-0.154 0-0.246 0.123-0.246 0.246v3.165z"></path>
<path d="M8.71 24.058v0c1.967 0 3.534 1.629 3.534 3.657s-1.567 3.657-3.504 3.688v0c-1.967 0-3.534-1.629-3.534-3.657-0.031-2.059 1.537-3.688 3.504-3.688v0zM8.741 29.314c0.861 0 1.567-0.738 1.567-1.629s-0.707-1.598-1.567-1.598v0c-0.861 0-1.567 0.738-1.567 1.629 0 0.861 0.707 1.598 1.567 1.598v0z"></path>
<path d="M24.968 24.058v0c1.967 0 3.534 1.629 3.534 3.657s-1.567 3.657-3.504 3.688h-0.031c-1.936 0-3.504-1.629-3.534-3.657 0.031-2.059 1.598-3.688 3.534-3.688v0zM25.029 29.314v0c0.891 0 1.567-0.738 1.567-1.629s-0.707-1.598-1.567-1.598c-0.86 0-1.567 0.738-1.567 1.629-0.031 0.861 0.676 1.598 1.567 1.598v0z"></path>
</svg>
